<svg xmlns="http://www.w3.org/2000/svg" xmlns:xlink="http://www.w3.org/1999/xlink" viewBox="0 0 1500 1500" width="1500" height="1500" preserveAspectRatio="xMidYMid meet" style="width: 100%; height: 100%; transform: translate3d(0px, 0px, 0px); content-visibility: visible;" id="Presenting Gesture"><defs><clipPath id="__lottie_element_762"><rect width="1500" height="1500" x="0" y="0"/></clipPath></defs><g clip-path="url(#__lottie_element_762)"><g transform="matrix(0.9990264773368835,-0.04411360248923302,0.04411360248923302,0.9990264773368835,-17.07058334350586,35.56059646606445)" opacity="1" style="display: block;"><g opacity="1" transform="matrix(1,0,0,1,717.5999755859375,516.4000244140625)"><path fill="rgb(253,224,180)" fill-opacity="1" d=" M45.79999923706055,-68.69999694824219 C55.20000076293945,-110.4000015258789 -36,37 -37.400001525878906,39.400001525878906 C-41.20000076293945,44.79999923706055 -44.400001525878906,50.20000076293945 -47.5,55.79999923706055 C-52.20000076293945,64 -66,83 -62.70000076293945,92.5999984741211 C-61.29999923706055,97 -57.5,100.5999984741211 -53.29999923706055,102.9000015258789 C-41.099998474121094,109.69999694824219 -20.5,110.4000015258789 -9,101.9000015258789 C-0.30000001192092896,95.4000015258789 8.100000381469727,88.5999984741211 16.299999237060547,81.4000015258789 C66,6.800000190734863 60.599998474121094,-51.79999923706055 45.79999923706055,-68.69999694824219z"/></g><g opacity="1" transform="matrix(1,0,0,1,740.8499755859375,507)"><path fill="rgb(204,136,34)" fill-opacity="1" d=" M21.649999618530273,-86 C10.850000381469727,-76.19999694824219 -0.8500000238418579,-58.79999923706055 -7.150000095367432,-46.400001525878906 C-22.149999618530273,-16.399999618530273 -48.150001525878906,8 -66.44999694824219,36.29999923706055 C-51.75,53.20000076293945 -19.450000762939453,71.9000015258789 -7.25,90.69999694824219 C-3.950000047683716,87.5999984741211 -0.44999998807907104,84.5999984741211 2.8499999046325684,81.30000305175781 C9.850000381469727,74.5 29.549999237060547,59.5 31.450000762939453,49.70000076293945 C31.450000762939453,49.79999923706055 66.44999694824219,-90.69999694824219 21.649999618530273,-86z"/></g></g><g transform="matrix(1,0,0,1,86,18)" opacity="1" style="display: block;"><g opacity="1" transform="matrix(1,0,0,1,833.8499755859375,1314.8499755859375)"><path fill="rgb(139,119,89)" fill-opacity="1" d=" M8.850000381469727,-29.850000381469727 C8.850000381469727,-29.850000381469727 4.449999809265137,-8.75 4.449999809265137,-8.75 C4.449999809265137,-8.75 -51.75,5.25 -45.25,34.849998474121094 C-45.25,34.849998474121094 12.149999618530273,39.04999923706055 51.04999923706055,28.950000762939453 C51.04999923706055,28.950000762939453 51.75,-21.25 48.45000076293945,-39.04999923706055 C48.45000076293945,-39.04999923706055 8.850000381469727,-29.850000381469727 8.850000381469727,-29.850000381469727z"/></g><g opacity="1" transform="matrix(1,0,0,1,702.6500244140625,1314.8499755859375)"><path fill="rgb(139,119,89)" fill-opacity="1" d=" M8.850000381469727,-29.850000381469727 C8.850000381469727,-29.850000381469727 4.449999809265137,-8.75 4.449999809265137,-8.75 C4.449999809265137,-8.75 -51.75,5.25 -45.25,34.849998474121094 C-45.25,34.849998474121094 12.149999618530273,39.04999923706055 51.04999923706055,28.950000762939453 C51.04999923706055,28.950000762939453 51.75,-21.25 48.45000076293945,-39.04999923706055 C48.45000076293945,-39.04999923706055 8.850000381469727,-29.850000381469727 8.850000381469727,-29.850000381469727z"/></g><g opacity="1" transform="matrix(1,0,0,1,777.0499877929688,971.5499877929688)"><path fill="rgb(64,63,63)" fill-opacity="1" d=" M33.849998474121094,110.6500015258789 C38.75,138.35000610351562 59.650001525878906,318.25 59.150001525878906,318.45001220703125 C76.25,314.45001220703125 93.1500015258789,310.95001220703125 110.25,307.25 C111.44999694824219,160.0500030517578 115.44999694824219,54.45000076293945 106.55000305175781,-100.55000305175781 C102.1500015258789,-179.75 95.05000305175781,-254.75 79.3499984741211,-319.6499938964844 C79.1500015258789,-319.8500061035156 -26.149999618530273,-304.8500061035156 -104.6500015258789,-314.45001220703125 C-115.44999694824219,-143.64999389648438 -83.3499984741211,135.25 -71.55000305175781,315.8500061035156 C-54.25,317.04998779296875 -37.150001525878906,318.45001220703125 -19.75,319.8500061035156 C-16.950000762939453,220.0500030517578 -7.349999904632568,-90.75 -3.75,-189.35000610351562 C2.1500000953674316,-156.14999389648438 26.350000381469727,74.3499984741211 33.849998474121094,110.6500015258789z"/></g></g><g transform="matrix(0.9998644590377808,0.01646450161933899,-0.01646450161933899,0.9998644590377808,98.45831298828125,5.7451171875)" opacity="1" style="display: block;"><g opacity="1" transform="matrix(1,0,0,1,773.8519897460938,377.6889953613281)"><path fill="rgb(253,224,180)" fill-opacity="1" d=" M31.648000717163086,17.81100082397461 C26.5,22.190000534057617 21.04800033569336,26.23699951171875 15.23799991607666,29.697999954223633 C12.817000389099121,31.141000747680664 10.335000038146973,32.48500061035156 7.789999961853027,33.69599914550781 C5.984000205993652,34.555999755859375 3.0369999408721924,35.066001892089844 1.5140000581741333,36.28499984741211 C-2.5850000381469727,39.5629997253418 -5.159999847412109,48.779998779296875 -7.252999782562256,53.52899932861328 C-10.041000366210938,59.104000091552734 -11.645999908447266,64.52999877929688 -13.260000228881836,70.58899688720703 C-20.503000259399414,62.47200012207031 -23.445999145507812,51.481998443603516 -25.822999954223633,40.867000579833984 C-27.042999267578125,35.41600036621094 -28.173999786376953,29.945999145507812 -29.30699920654297,24.476999282836914 C-31.64699935913086,13.170999526977539 -30.35099983215332,3.690000057220459 -28.08300018310547,-7.436999797821045 C-27.006999969482422,-12.720999717712402 -25.929000854492188,-18.0049991607666 -24.851999282836914,-23.288999557495117 C-24.851999282836914,-23.288999557495117 -18.351999282836914,-54.48899841308594 -18.351999282836914,-54.48899841308594 C-18.351999282836914,-54.48899841308594 30.347000122070312,-70.58899688720703 30.347000122070312,-70.58899688720703 C30.347000122070312,-70.58899688720703 23.547000885009766,-30.288999557495117 23.547000885009766,-30.288999557495117 C23.547000885009766,-30.288999557495117 17.648000717163086,4.410999774932861 17.648000717163086,4.410999774932861 C17.648000717163086,4.410999774932861 31.648000717163086,17.81100082397461 31.648000717163086,17.81100082397461z"/></g><g opacity="1" transform="matrix(1,0,0,1,776.85400390625,331.79998779296875)"><path fill="rgb(255,214,153)" fill-opacity="1" d=" M27.945999145507812,-24.399999618530273 C27.945999145507812,-24.399999618530273 20.44099998474121,16.225000381469727 20.44099998474121,16.225000381469727 C10.840999603271484,21.625 0.04600000008940697,24.399999618530273 -12.354000091552734,24.399999618530273 C-17.554000854492188,24.399999618530273 -23.04800033569336,23.679000854492188 -27.94700050354004,22.57900047302246 C-27.94700050354004,22.57900047302246 -21.054000854492188,-8.399999618530273 -21.054000854492188,-8.399999618530273 C-21.054000854492188,-8.399999618530273 27.945999145507812,-24.399999618530273 27.945999145507812,-24.399999618530273z"/></g><g opacity="1" transform="matrix(1,0,0,1,769.3670043945312,561.10498046875)"><path fill="rgb(204,136,34)" fill-opacity="1" d=" M110.76300048828125,-40.152000427246094 C114.80599975585938,19.05699920654297 109.4739990234375,78.46299743652344 113.33000183105469,137.68099975585938 C113.93000030517578,146.89199829101562 117.81900024414062,179.83099365234375 109.60700225830078,183.38400268554688 C102.39299774169922,186.5050048828125 87.76799774169922,184.08399963378906 79.81199645996094,184.31300354003906 C59.18600082397461,184.906005859375 38.555999755859375,185.3719940185547 17.923999786376953,185.70899963378906 C-23.34000015258789,186.38299560546875 -70.00900268554688,184.92999267578125 -111.2770004272461,184.57699584960938 C-115.37899780273438,116.10399627685547 -116.36199951171875,24.452999114990234 -116.39700317382812,-44.340999603271484 C-116.41500091552734,-80.45600128173828 -117.81900024414062,-122.7239990234375 -103.46700286865234,-156.7050018310547 C-104.06900024414062,-156.93800354003906 -98.88700103759766,-160.22000122070312 -98.53299713134766,-160.4199981689453 C-93.58000183105469,-163.2100067138672 -88.39700317382812,-165.62399291992188 -83.20800018310547,-167.93600463867188 C-70.09100341796875,-173.7790069580078 -56.29100036621094,-179.26800537109375 -42.10499954223633,-181.82899475097656 C-38.83700180053711,-182.41900634765625 -35.4640007019043,-182.81300354003906 -32.159000396728516,-183.0189971923828 C-23.75200080871582,-183.54299926757812 -28.340999603271484,-172.3730010986328 -26.759000778198242,-167.27699279785156 C-24.23699951171875,-159.1529998779297 -13.5649995803833,-151.97500610351562 -6.357999801635742,-148.4980010986328 C-5.8480000495910645,-148.25100708007812 -5.302999973297119,-148.00799560546875 -4.73799991607666,-148.05999755859375 C-3.944999933242798,-148.1320037841797 -3.3289999961853027,-148.75900268554688 -2.799999952316284,-149.35499572753906 C0.23399999737739563,-152.7740020751953 2.9170000553131104,-156.48300170898438 5.880000114440918,-159.96200561523438 C8.593000411987305,-163.1479949951172 12.262999534606934,-165.50100708007812 14.904000282287598,-168.62399291992188 C17.115999221801758,-171.23899841308594 18.30900001525879,-174.5500030517578 20.655000686645508,-177.18899536132812 C23.540000915527344,-180.43299865722656 27.034000396728516,-183.08599853515625 29.732999801635742,-186.5050048828125 C29.732999801635742,-186.5050048828125 110.83300018310547,-153.90499877929688 110.83300018310547,-153.90499877929688 C106.03099822998047,-145.9029998779297 106.07499694824219,-132.7270050048828 105.08100128173828,-123.89199829101562 C101.927001953125,-95.85199737548828 108.66699981689453,-69.77100372314453 110.66500091552734,-41.558998107910156 C110.697998046875,-41.09000015258789 110.73100280761719,-40.62099838256836 110.76300048828125,-40.152000427246094z"/></g><g opacity="1" transform="matrix(1,0,0,1,763.1430053710938,414.6300048828125)"><path fill="rgb(2,2,2)" fill-opacity="0.15" d=" M-50.4109992980957,142.7310028076172 C-50.4109992980957,142.7310028076172 55.05699920654297,38.33000183105469 55.05699920654297,38.33000183105469 C55.05699920654297,38.33000183105469 55.05699920654297,-38.33000183105469 55.05699920654297,-38.33000183105469 C55.05699920654297,-38.33000183105469 -55.05699920654297,-38.33000183105469 -55.05699920654297,-38.33000183105469 C-55.05699920654297,-38.33000183105469 -50.4109992980957,142.7310028076172 -50.4109992980957,142.7310028076172z M-763.1430053710938,-414.6300048828125 C-763.1430053710938,-414.6300048828125 737.8569946289062,-414.6300048828125 737.8569946289062,-414.6300048828125 C737.8569946289062,-414.6300048828125 737.8569946289062,1086.3699951171875 737.8569946289062,1086.3699951171875 C737.8569946289062,1086.3699951171875 -763.1430053710938,1086.3699951171875 -763.1430053710938,1086.3699951171875 C-763.1430053710938,1086.3699951171875 -763.1430053710938,-414.6300048828125 -763.1430053710938,-414.6300048828125z M-763.1430053710938,1086.3699951171875 C-763.1430053710938,1086.3699951171875 737.8569946289062,1086.3699951171875 737.8569946289062,1086.3699951171875 C737.8569946289062,1086.3699951171875 737.8569946289062,-414.6300048828125 737.8569946289062,-414.6300048828125 C737.8569946289062,-414.6300048828125 -763.1430053710938,-414.6300048828125 -763.1430053710938,-414.6300048828125 C-763.1430053710938,-414.6300048828125 -763.1430053710938,1086.3699951171875 -763.1430053710938,1086.3699951171875z M55.05699920654297,-31.1299991607666 C53.40399932861328,-13.461999893188477 46.35200119018555,-13.293999671936035 34.04399871826172,-0.41999998688697815 C30.27899932861328,-2.3359999656677246 -3.328000068664551,38.183998107910156 -6.585999965667725,40.47600173950195 C-7.979000091552734,41.45500183105469 -35.44300079345703,126.12699890136719 -35.380001068115234,126.1729965209961 C-45.9119987487793,118.40699768066406 -19.47599983215332,22.783000946044922 -30.018999099731445,15.032999992370605 C-34.090999603271484,12.039999961853027 -36.935001373291016,10.560999870300293 -41.750999450683594,9.545999526977539 C-43.82899856567383,9.107999801635742 -54.78099822998047,6.4019999504089355 -54.94300079345703,4.070000171661377 C-55.643001556396484,-6.03000020980835 -53.042999267578125,-13.729999542236328 -49.542999267578125,-23.329999923706055 C-48.143001556396484,-27.329999923706055 -48.143001556396484,-29.43000030517578 -46.44300079345703,-32.43000030517578 C-38.74300003051758,-35.529998779296875 -32.44300079345703,-38.029998779296875 -31.94300079345703,-38.33000183105469 C-31.94300079345703,-38.33000183105469 -24.44300079345703,-6.929999828338623 -2.1429998874664307,-1.0299999713897705 C11.256999969482422,2.4700000286102295 20.35700035095215,-19.729999542236328 40.75699996948242,-38.029998779296875 C40.75699996948242,-38.029998779296875 55.05699920654297,-31.1299991607666 55.05699920654297,-31.1299991607666z"/><g opacity="1" transform="matrix(1,0,0,1,0,0)"/></g><g opacity="1" transform="matrix(1,0,0,1,725.4149780273438,480.1199951171875)"><path fill="rgb(123,75,3)" fill-opacity="1" d=" M0.44999998807907104,-91.125 C22.531999588012695,-91.60399627685547 44.71500015258789,-85.83999633789062 63.77199935913086,-74.67400360107422 C42.834999084472656,-59.992000579833984 25.459999084472656,-39.70600128173828 16.351999282836914,-15.8100004196167 C6.214000225067139,10.791000366210938 14.222999572753906,51.99300003051758 -1.565999984741211,75.6760025024414 C-12.182999610900879,91.60299682617188 -46.229000091552734,72.04399871826172 -63.77199935913086,60.979000091552734 C-47.1619987487793,37.86199951171875 -44.698001861572266,8.652999877929688 -39.750999450683594,-18.496000289916992 C-35.441001892089844,-42.14899826049805 -30.906999588012695,-73.90299987792969 -6.557000160217285,-85.2750015258789 C-0.8769999742507935,-87.9280014038086 -5.817999839782715,-90.98899841308594 0.44999998807907104,-91.125z"/></g><g opacity="1" transform="matrix(1,0,0,1,762.7030029296875,376.6510009765625)"><path fill="rgb(114,90,53)" fill-opacity="1" d=" M-51.27299880981445,20.77899932861328 C-50.14099884033203,27.94700050354004 -44.433998107910156,33.57400131225586 -38.236000061035156,37.349998474121094 C-21.54199981689453,47.518001556396484 0.9319999814033508,47.290000915527344 17.41699981689453,36.784000396728516 C21.829999923706055,33.97200012207031 26.315000534057617,31.461999893188477 30.402000427246094,28.163000106811523 C33.069000244140625,26.010000228881836 35.03499984741211,23.06999969482422 37.724998474121094,20.9689998626709 C40.35100173950195,18.917999267578125 43.22200012207031,18.159000396728516 45.599998474121094,15.590999603271484 C50.15999984741211,10.668000221252441 52.9630012512207,3.5380001068115234 52.69900131225586,-3.191999912261963 C52.277000427246094,-13.960000038146973 51.86800003051758,-24.729000091552734 51.45100021362305,-35.49700164794922 C51.37200164794922,-37.54399871826172 51.27899932861328,-39.6510009765625 50.43199920654297,-41.51599884033203 C48.481998443603516,-45.81399917602539 43.020999908447266,-47.518001556396484 38.358001708984375,-46.78900146484375 C33.69499969482422,-46.058998107910156 29.56599998474121,-43.48899841308594 25.391000747680664,-41.2869987487793 C14.692000389099121,-35.64699935913086 2.8550000190734863,-32.22700119018555 -9.184000015258789,-31.14900016784668 C-17.072999954223633,-30.44300079345703 -27.613000869750977,-32.96500015258789 -35.11199951171875,-30.18000030517578 C-44.0880012512207,-26.844999313354492 -43.42399978637695,-21.46500015258789 -44.34700012207031,-12.826000213623047 C-45.49399948120117,-2.0910000801086426 -52.9630012512207,10.074999809265137 -51.27299880981445,20.77899932861328z"/></g></g><g transform="matrix(0.9990264773368835,-0.04411360248923302,0.04411360248923302,0.9990264773368835,-17.07058334350586,35.56059646606445)" opacity="1" style="display: block;"><g opacity="1" transform="matrix(1,0,0,1,642.0499877929688,570.7000122070312)"><path fill="rgb(253,224,180)" fill-opacity="1" d=" M74.25,44.900001525878906 C66.25,51 58.150001525878906,56.900001525878906 50.75,58 C33.849998474121094,60.599998474121094 20.549999237060547,49.79999923706055 7.449999809265137,40.20000076293945 C-55.349998474121094,-5.800000190734863 -84.1500015258789,-33.400001525878906 -84.1500015258789,-33.400001525878906 C-84.1500015258789,-33.400001525878906 -63.54999923706055,-60.599998474121094 -63.54999923706055,-60.599998474121094 C-63.54999923706055,-60.599998474121094 15.649999618530273,-28.700000762939453 58.54999923706055,1 C67.05000305175781,6.900000095367432 84.1500015258789,16.200000762939453 83.1500015258789,28.700000762939453 C82.75,34.099998474121094 79.1500015258789,40.900001525878906 74.25,44.900001525878906z"/></g></g><g transform="matrix(0.9990264773368835,-0.04411360248923302,0.04411360248923302,0.9990264773368835,-17.07058334350586,35.56059646606445)" opacity="1" style="display: block;"><g opacity="1" transform="matrix(1,0,0,1,542.4000244140625,492.5)"><path fill="rgb(253,224,180)" fill-opacity="1" d=" M9.399999618530273,46.400001525878906 C-0.699999988079071,45.70000076293945 -9.800000190734863,41 -18.5,36.29999923706055 C-19.200000762939453,35.79999923706055 -20.399999618530273,35.29999923706055 -21.299999237060547,34.900001525878906 C-23.899999618530273,33.29999923706055 -26.700000762939453,31.600000381469727 -28.600000381469727,29.299999237060547 C-30.700000762939453,27 -31.899999618530273,24.600000381469727 -32.099998474121094,21.600000381469727 C-32.099998474121094,18.799999237060547 -31.100000381469727,16.399999618530273 -29.799999237060547,14.100000381469727 C-27.700000762939453,10.100000381469727 -24.600000381469727,6.400000095367432 -24.200000762939453,2.200000047683716 C-23.700000762939453,-0.4000000059604645 -24,-2.5 -23.700000762939453,-3.9000000953674316 C-23.5,-7.199999809265137 -23,-9.100000381469727 -19,-10.399999618530273 C-18.299999237060547,-10.600000381469727 -17.600000381469727,-10.899999618530273 -16.700000762939453,-11.100000381469727 C-16.899999618530273,-11.800000190734863 -17.200000762939453,-12.300000190734863 -17.399999618530273,-12.699999809265137 C-19,-15.5 -22.100000381469727,-17.600000381469727 -24.399999618530273,-20 C-28.200000762939453,-24.200000762939453 -38.400001525878906,-34.29999923706055 -42,-38.79999923706055 C-43.20000076293945,-40.400001525878906 -44.599998474121094,-42.599998474121094 -44.099998474121094,-44.400001525878906 C-43.400001525878906,-46.29999923706055 -41.29999923706055,-47.20000076293945 -39.20000076293945,-46.70000076293945 C-37.099998474121094,-46.20000076293945 -35.400001525878906,-45.29999923706055 -34,-43.900001525878906 C-11,-27.5 19.5,-5 36.599998474121094,17.5 C39.900001525878906,21.700000762939453 38.900001525878906,23.799999237060547 42.20000076293945,28.100000381469727 C42.900001525878906,29.299999237060547 43.79999923706055,30.399999618530273 44.099998474121094,31.899999618530273 C44.599998474121094,35.20000076293945 41.29999923706055,37.5 38.5,39.20000076293945 C29.299999237060547,43.400001525878906 19.399999618530273,47.20000076293945 9.399999618530273,46.400001525878906z"/></g><g opacity="1" transform="matrix(1,0,0,1,533.0999755859375,503.25)"><path fill="rgb(2,2,2)" fill-opacity="0.1" d=" M-20.700000762939453,3.549999952316284 C-21.200000762939453,5.650000095367432 -21.200000762939453,7.75 -21.200000762939453,10.050000190734863 C-21,12.850000381469727 -20.5,15.949999809265137 -19.600000381469727,18.75 C-17.5,20.850000381469727 -14.899999618530273,22.75 -12.300000190734863,24.350000381469727 C-11.600000381469727,23.850000381469727 -11.100000381469727,23.149999618530273 -10.699999809265137,22.75 C-9.5,21.549999237060547 -8.399999618530273,20.850000381469727 -6.699999809265137,20.450000762939453 C-2.700000047683716,18.549999237060547 1.5,16.450000762939453 5.699999809265137,15.75 C9.899999618530273,15.050000190734863 14.800000190734863,15.550000190734863 18.600000381469727,18.049999237060547 C18.600000381469727,18.049999237060547 21.200000762939453,5.150000095367432 21.200000762939453,5.150000095367432 C21.200000762939453,0.44999998807907104 19.600000381469727,-4.25 16.299999237060547,-7.949999809265137 C14,-10.75 10.699999809265137,-12.649999618530273 7.800000190734863,-14.75 C2.5999999046325684,-18.049999237060547 -2.5,-21.25 -7.900000095367432,-24.350000381469727 C-8.100000381469727,-24.149999618530273 -8.399999618530273,-23.850000381469727 -8.600000381469727,-23.850000381469727 C-9.300000190734863,-23.149999618530273 -9.800000190734863,-22.25 -10.199999809265137,-21.25 C-10.699999809265137,-20.549999237060547 -10.899999618530273,-19.649999618530273 -11.399999618530273,-18.950000762939453 C-12.399999618530273,-17.350000381469727 -13.699999809265137,-15.850000381469727 -14.899999618530273,-14.75 C-14.899999618530273,-14.75 -20.700000762939453,3.549999952316284 -20.700000762939453,3.549999952316284z"/></g><g opacity="1" transform="matrix(1,0,0,1,509.75,509.6499938964844)"><path fill="rgb(253,224,180)" fill-opacity="1" d=" M9.949999809265137,15.449999809265137 C5.75,16.149999618530273 1.4500000476837158,13.350000381469727 -1.350000023841858,10.550000190734863 C-4.650000095367432,7.25 -7.25,3.549999952316284 -9.550000190734863,-0.44999998807907104 C-11.850000381469727,-4.650000095367432 -13.350000381469727,-10.550000190734863 -10.25,-14.050000190734863 C-9.25,-15.25 -7.949999809265137,-15.949999809265137 -6.449999809265137,-16.149999618530273 C-5.75,-16.149999618530273 -4.849999904632568,-16.149999618530273 -4.150000095367432,-15.649999618530273 C-1.350000023841858,-14.949999809265137 1.4500000476837158,-12.550000190734863 2.3499999046325684,-10.449999809265137 C3.549999952316284,-8.350000381469727 4.25,-6.050000190734863 4.650000095367432,-3.6500000953674316 C4.849999904632568,-3.450000047683716 4.849999904632568,-2.950000047683716 5.150000095367432,-2.6500000953674316 C6.349999904632568,1.350000023841858 8.25,4.849999904632568 10.75,8.149999618530273 C10.949999809265137,8.350000381469727 10.949999809265137,8.649999618530273 11.25,8.850000381469727 C12.449999809265137,10.449999809265137 13.350000381469727,12.350000381469727 12.449999809265137,14.050000190734863 C12.050000190734863,14.75 10.850000381469727,15.25 9.949999809265137,15.449999809265137z"/></g><g opacity="1" transform="matrix(1,0,0,1,512.2420043945312,505.95001220703125)"><path fill="rgb(2,2,2)" fill-opacity="0.1" d=" M9.057000160217285,12.350000381469727 C5.756999969482422,10.75 0.3569999933242798,6.75 -0.34299999475479126,6.449999809265137 C-3.443000078201294,3.6500000953674316 -6.243000030517578,0.3499999940395355 -8.043000221252441,-3.6500000953674316 C-9.243000030517578,-6.449999809265137 -9.243000030517578,-9.25 -8.743000030517578,-12.350000381469727 C-8.043000221252441,-12.350000381469727 -7.14300012588501,-12.350000381469727 -6.442999839782715,-11.850000381469727 C-5.043000221252441,-10.649999618530273 -3.3429999351501465,-9.550000190734863 -3.1429998874664307,-9.050000190734863 C-1.5429999828338623,-7.150000095367432 -0.8429999947547913,-4.849999904632568 0.6570000052452087,-2.950000047683716 C1.3569999933242798,-1.9500000476837158 2.056999921798706,-0.8500000238418579 2.756999969482422,-0.15000000596046448 C2.9570000171661377,0.05000000074505806 2.9570000171661377,0.550000011920929 3.256999969482422,0.8500000238418579 C4.456999778747559,4.849999904632568 6.35699987411499,8.350000381469727 8.857000350952148,11.649999618530273 C8.557000160217285,11.850000381469727 8.756999969482422,12.149999618530273 9.057000160217285,12.350000381469727z"/></g><g opacity="1" transform="matrix(1,0,0,1,517.0999755859375,502.8500061035156)"><path fill="rgb(253,224,180)" fill-opacity="1" d=" M11.899999618530273,14.75 C7.699999809265137,16.149999618530273 3.200000047683716,14.050000190734863 -0.5,10.949999809265137 C-4.300000190734863,8.149999618530273 -7.5,4.650000095367432 -10.300000190734863,0.6499999761581421 C-13.100000381469727,-3.3499999046325684 -15.5,-8.949999809265137 -12.600000381469727,-13.350000381469727 C-11.399999618530273,-15.449999809265137 -9.5,-16.149999618530273 -7.400000095367432,-15.949999809265137 C-6.699999809265137,-15.949999809265137 -6,-15.949999809265137 -5.300000190734863,-15.75 C-2.5,-15.050000190734863 0.10000000149011612,-13.149999618530273 1.5,-11.350000381469727 C2.5,-9.949999809265137 3.0999999046325684,-8.550000190734863 3.799999952316284,-7.150000095367432 C4.300000190734863,-5.949999809265137 4.800000190734863,-4.849999904632568 5.199999809265137,-3.8499999046325684 C7.099999904632568,0.15000000596046448 9.399999618530273,3.6500000953674316 12.199999809265137,6.449999809265137 C12.199999809265137,6.449999809265137 12.399999618530273,6.449999809265137 12.399999618530273,6.449999809265137 C13.800000190734863,8.050000190734863 15.5,10.25 14.699999809265137,12.050000190734863 C14.300000190734863,13.850000381469727 13.100000381469727,14.350000381469727 11.899999618530273,14.75z"/></g><g opacity="1" transform="matrix(1,0,0,1,519.5499877929688,498.54998779296875)"><path fill="rgb(2,2,2)" fill-opacity="0.1" d=" M9.949999809265137,11.350000381469727 C9.75,11.350000381469727 9.25,11.350000381469727 9.25,11.149999618530273 C4.050000190734863,9.550000190734863 -0.3499999940395355,5.949999809265137 -3.6500000953674316,1.75 C-5.949999809265137,-1.5499999523162842 -7.650000095367432,-5.25 -9.25,-9.050000190734863 C-9.75,-9.75 -9.949999809265137,-10.649999618530273 -9.949999809265137,-11.350000381469727 C-9.25,-11.350000381469727 -8.550000190734863,-11.350000381469727 -7.849999904632568,-11.149999618530273 C-7.849999904632568,-11.149999618530273 1.25,-2.450000047683716 1.25,-2.450000047683716 C1.75,-1.25 2.25,-0.15000000596046448 2.6500000953674316,0.8500000238418579 C4.550000190734863,4.550000190734863 6.849999904632568,8.050000190734863 9.949999809265137,11.350000381469727z"/></g><g opacity="1" transform="matrix(1,0,0,1,524.9500122070312,490.70001220703125)"><path fill="rgb(253,224,180)" fill-opacity="1" d=" M13.649999618530273,18 C13.649999618530273,18 13.649999618530273,18 13.649999618530273,18 C9.850000381469727,19.200000762939453 6.349999904632568,18.200000762939453 3.049999952316284,16.399999618530273 C1.850000023841858,15.699999809265137 0.75,15 -0.44999998807907104,14.100000381469727 C-4.650000095367432,10.800000190734863 -8.649999618530273,7.099999904632568 -11.75,2.5999999046325684 C-15.050000190734863,-2.0999999046325684 -17.649999618530273,-8.399999618530273 -14.550000190734863,-13.100000381469727 C-10.75,-19.200000762939453 -2.1500000953674316,-15.199999809265137 1.149999976158142,-10.800000190734863 C3.049999952316284,-8.199999809265137 4.25,-5.199999809265137 5.349999904632568,-2.0999999046325684 C5.550000190734863,-1.899999976158142 5.550000190734863,-1.600000023841858 5.849999904632568,-1.399999976158142 C6.849999904632568,0.8999999761581421 8.149999618530273,2.799999952316284 9.850000381469727,4.900000095367432 C11.050000190734863,6.5 12.149999618530273,8.199999809265137 13.850000381469727,9.600000381469727 C15.449999809265137,11.5 17.649999618530273,13.600000381469727 16.649999618530273,16.100000381469727 C16.049999237060547,16.899999618530273 14.850000381469727,17.5 13.649999618530273,18z"/></g><g opacity="1" transform="matrix(1,0,0,1,527.906982421875,498.61199951171875)"><path fill="rgb(2,2,2)" fill-opacity="0.1" d=" M10.692999839782715,10.088000297546387 C10.692999839782715,10.088000297546387 10.692999839782715,10.088000297546387 10.692999839782715,10.088000297546387 C6.89300012588501,11.288000106811523 3.3929998874664307,10.288000106811523 0.09300000220537186,8.48799991607666 C-3.006999969482422,5.688000202178955 -5.807000160217285,2.5880000591278076 -8.406999588012695,-0.6119999885559082 C-9.807000160217285,-2.51200008392334 -11.206999778747559,-4.611999988555908 -10.506999969482422,-6.9120001792907715 C-10.006999969482422,-8.51200008392334 -8.406999588012695,-9.711999893188477 -6.706999778747559,-10.211999893188477 C-5.10699987411499,-10.711999893188477 -3.2070000171661377,-10.711999893188477 -1.5069999694824219,-10.411999702453613 C0.19300000369548798,-10.112000465393066 1.593000054359436,-9.911999702453613 3.193000078201294,-9.711999893188477 C4.192999839782715,-7.4120001792907715 5.493000030517578,-5.51200008392334 7.192999839782715,-3.4119999408721924 C7.192999839782715,-3.4119999408721924 10.692999839782715,10.088000297546387 10.692999839782715,10.088000297546387z"/></g><g opacity="1" transform="matrix(1,0,0,1,544.7999877929688,508.3500061035156)"><path fill="rgb(253,224,180)" fill-opacity="1" d=" M-18.799999237060547,-17.75 C-20.700000762939453,-17.950000762939453 -22.799999237060547,-18.25 -24.200000762939453,-16.75 C-26.299999237060547,-14.649999618530273 -24.399999618530273,-11.149999618530273 -22.299999237060547,-9.25 C-18.299999237060547,-5.050000190734863 -13.600000381469727,-1.25 -8.300000190734863,1.350000023841858 C-6.400000095367432,2.049999952316284 -4.300000190734863,2.950000047683716 -2.9000000953674316,4.650000095367432 C-1.5,6.050000190734863 -0.800000011920929,7.949999809265137 0.20000000298023224,9.550000190734863 C3.299999952316284,14.949999809265137 9.600000381469727,18.25 15.699999809265137,17.049999237060547 C21.799999237060547,15.850000381469727 26.299999237060547,9.350000381469727 24.799999237060547,3.450000047683716 C24.100000381469727,0.6499999761581421 22.200000762939453,-1.75 20.399999618530273,-4.050000190734863 C8.600000381469727,-17.950000762939453 -2.5999999046325684,-15.350000381469727 -18.799999237060547,-17.75z"/></g></g><g transform="matrix(0.9952849745750427,-0.09699420630931854,0.09699420630931854,0.9952849745750427,-48.7152214050293,92.52145385742188)" opacity="1" style="display: block;"><g opacity="1" transform="matrix(1,0,0,1,961.5999755859375,515.9500122070312)"><path fill="rgb(204,136,34)" fill-opacity="1" d=" M7.599999904632568,-90.25 C1.2999999523162842,-77.55000305175781 -10.199999809265137,-64.94999694824219 -16.5,-52.25 C-32.20000076293945,-21.049999237060547 -56.599998474121094,9.149999618530273 -75.80000305175781,38.75 C-67.19999694824219,60.75 -36,82.05000305175781 -13.699999809265137,90.25 C-9.5,86.05000305175781 0.6000000238418579,78.55000305175781 3.5999999046325684,75.44999694824219 C10.600000381469727,68.6500015258789 15.5,56.04999923706055 22.100000381469727,44.04999923706055 C22.399999618530273,43.650001525878906 75.80000305175781,-63.45000076293945 7.599999904632568,-90.25z"/></g><g opacity="1" transform="matrix(1,0,0,1,894.9000244140625,597.6500244140625)"><path fill="rgb(253,224,180)" fill-opacity="1" d=" M-1.399999976158142,-42.349998474121094 C-2.0999999046325684,-41.150001525878906 -2.799999952316284,-40.25 -3.5,-39.04999923706055 C-6.800000190734863,-34.150001525878906 -10,-28.75 -13.100000381469727,-23.549999237060547 C-26.899999618530273,1.0499999523162842 -48.70000076293945,31.549999237060547 -6.599999904632568,39.25 C10.5,42.349998474121094 33,21.149999618530273 48.70000076293945,5.050000190734863 C27,-3.1500000953674316 7.5,-20.25 -1.399999976158142,-42.349998474121094z"/></g></g><g transform="matrix(0.9952849745750427,-0.09699420630931854,0.09699420630931854,0.9952849745750427,-48.7152214050293,92.52145385742188)" opacity="1" style="display: block;"><g opacity="1" transform="matrix(1,0,0,1,834.7999877929688,573.5)"><path fill="rgb(253,224,180)" fill-opacity="1" d=" M79.5999984741211,50 C79.5999984741211,50 79.0999984741211,51.599998474121094 77.69999694824219,53.79999923706055 C71.19999694824219,57.79999923706055 63.400001525878906,61.29999923706055 56.599998474121094,62.900001525878906 C52.400001525878906,62.70000076293945 47.20000076293945,61.70000076293945 41.099998474121094,59.599998474121094 C31.5,56.29999923706055 19.799999237060547,49.79999923706055 5,39.20000076293945 C-58.20000076293945,-7.199999809265137 -87.30000305175781,-34.099998474121094 -87.30000305175781,-34.099998474121094 C-87.30000305175781,-34.099998474121094 -66.9000015258789,-62.900001525878906 -66.9000015258789,-62.900001525878906 C-66.9000015258789,-62.900001525878906 14,-30.299999237060547 57.099998474121094,-0.10000000149011612 C70.69999694824219,9.300000190734863 80.30000305175781,18.700000762939453 82.9000015258789,26.600000381469727 C83.30000305175781,26.399999618530273 87.30000305175781,44.20000076293945 79.5999984741211,50z"/></g></g><g transform="matrix(0.9952849745750427,-0.09699420630931854,0.09699420630931854,0.9952849745750427,-48.7152214050293,92.52145385742188)" opacity="1" style="display: block;"><g opacity="1" transform="matrix(1,0,0,1,729.5999755859375,492.29998779296875)"><path fill="rgb(253,224,180)" fill-opacity="1" d=" M45.099998474121094,31.399999618530273 C44.900001525878906,30 43.900001525878906,28.600000381469727 43.20000076293945,27.600000381469727 C40.099998474121094,23.200000762939453 40.599998474121094,21.100000381469727 37.29999923706055,16.799999237060547 C20,-5.900000095367432 -10.800000190734863,-28.600000381469727 -34,-45.20000076293945 C-35.400001525878906,-46.400001525878906 -37.29999923706055,-47.5 -39.20000076293945,-48 C-41.29999923706055,-48.20000076293945 -43.400001525878906,-47.29999923706055 -44.099998474121094,-45.400001525878906 C-44.79999923706055,-43.29999923706055 -43.400001525878906,-41.400001525878906 -42,-39.79999923706055 C-38.20000076293945,-35.099998474121094 -28,-25 -24.200000762939453,-20.799999237060547 C-23,-19.600000381469727 -21.899999618530273,-18.5 -20.399999618530273,-17.299999237060547 C-24.200000762939453,-19.200000762939453 -28.899999618530273,-19.399999618530273 -31,-15.699999809265137 C-32.900001525878906,-12.600000381469727 -32.599998474121094,-9.199999809265137 -31.5,-5.599999904632568 C-31.5,-5.599999904632568 -32.20000076293945,-5.599999904632568 -32.20000076293945,-5.599999904632568 C-34.29999923706055,-5.599999904632568 -36.20000076293945,-4.900000095367432 -37.400001525878906,-2.799999952316284 C-39.70000076293945,1 -38.400001525878906,5.699999809265137 -36,9.899999618530273 C-43.29999923706055,13 -45.599998474121094,21.200000762939453 -37.900001525878906,25.899999618530273 C-32.5,29.200000762939453 -26.899999618530273,32.400001525878906 -21.299999237060547,35.5 C-21.100000381469727,35.70000076293945 -20.799999237060547,35.70000076293945 -20.799999237060547,36 C-19.799999237060547,36.5 -18.899999618530273,37 -18,37.400001525878906 C-9.100000381469727,42.099998474121094 0.30000001192092896,46.79999923706055 10.399999618530273,47.5 C20.700000762939453,48.20000076293945 30.799999237060547,44.20000076293945 39.70000076293945,39 C42.5,37.29999923706055 45.599998474121094,34.70000076293945 45.099998474121094,31.399999618530273z"/></g></g><g transform="matrix(0.998235285282135,0.059383101761341095,-0.059383101761341095,0.998235285282135,113.39022827148438,-27.556671142578125)" opacity="1" style="display: block;"><g opacity="1" transform="matrix(1,0,0,1,762.343994140625,238.78599548339844)"><path fill="rgb(97,97,95)" fill-opacity="1" d=" M15.75,-69.0999984741211 C-4.849999904632568,-68.19999694824219 -26.450000762939453,-71.69999694824219 -45.849998474121094,-64.19999694824219 C-50.04999923706055,-62.599998474121094 -54.25,-60.5 -57.04999923706055,-57.20000076293945 C-61.75,-52.29999923706055 -63.650001525878906,-45.70000076293945 -64.75,-39.400001525878906 C-67.75,-23.200000762939453 -67.05000305175781,-6.599999904632568 -65.94999694824219,9.800000190734863 C-64.55000305175781,25.5 -62.25,52 -43.95000076293945,57.79999923706055 C-24.450000762939453,63.70000076293945 -4.849999904632568,69.80000305175781 15.350000381469727,71.19999694824219 C21.450000762939453,71.69999694824219 27.75,71.69999694824219 33.349998474121094,69.5999984741211 C40.849998474121094,67 46.45000076293945,60.900001525878906 49.95000076293945,54.099998474121094 C53.45000076293945,47.29999923706055 55.150001525878906,39.79999923706055 56.75,32.29999923706055 C60.04999923706055,17.5 62.650001525878906,2.5 64.94999694824219,-12.5 C67.25,-27.5 67.75,-43.400001525878906 62.349998474121094,-57.70000076293945 C61.650001525878906,-59.599998474121094 60.75,-61.70000076293945 59.04999923706055,-62.900001525878906 C57.650001525878906,-64.30000305175781 55.54999923706055,-64.80000305175781 53.45000076293945,-65.19999694824219 C42.25,-68.19999694824219 27.75,-69.5999984741211 15.75,-69.0999984741211z"/></g><g opacity="1" transform="matrix(1,0,0,1,753.593994140625,278.1860046386719)"><path fill="rgb(251,223,181)" fill-opacity="1" d=" M46.099998474121094,-70.80000305175781 C46.099998474121094,-70.80000305175781 37.900001525878906,-32.099998474121094 53.79999923706055,6.099999904632568 C53.79999923706055,6.099999904632568 50.79999923706055,71.30000305175781 -2.700000047683716,74.5 C-2.700000047683716,74.5 -51.900001525878906,75 -53.79999923706055,26 C-53.79999923706055,26 -51,-75 -51,-75 C-51,-75 46.099998474121094,-70.80000305175781 46.099998474121094,-70.80000305175781z"/></g><g opacity="1" transform="matrix(1,0,0,1,717.2440185546875,245.63600158691406)"><path fill="rgb(2,2,2)" fill-opacity="1" d=" M10.949999809265137,5.849999904632568 C10.449999809265137,5.849999904632568 10.050000190734863,5.650000095367432 9.75,5.150000095367432 C5.25,-0.44999998807907104 -4.050000190734863,-2.3499999046325684 -10.449999809265137,1.4500000476837158 C-11.149999618530273,1.9500000476837158 -12.350000381469727,1.649999976158142 -12.550000190734863,0.75 C-13.050000190734863,0.05000000074505806 -12.75,-1.149999976158142 -11.850000381469727,-1.350000023841858 C-4.150000095367432,-5.849999904632568 7.150000095367432,-3.6500000953674316 12.550000190734863,3.3499999046325684 C13.050000190734863,4.050000190734863 13.050000190734863,4.949999809265137 12.350000381469727,5.650000095367432 C11.649999618530273,5.550000190734863 11.25,5.849999904632568 10.949999809265137,5.849999904632568z"/></g><g opacity="1" transform="matrix(1,0,0,1,775.6939697265625,249.43600463867188)"><path fill="rgb(2,2,2)" fill-opacity="1" d=" M-12.600000381469727,5.050000190734863 C-13.100000381469727,5.050000190734863 -13.5,4.849999904632568 -13.800000190734863,4.550000190734863 C-14.5,3.8499999046325684 -14.300000190734863,2.950000047683716 -13.600000381469727,2.25 C-6.300000190734863,-4.349999904632568 5.599999904632568,-5.050000190734863 13.600000381469727,0.3499999940395355 C14.300000190734863,0.8500000238418579 14.5,1.75 14.100000381469727,2.6500000953674316 C13.600000381469727,3.3499999046325684 12.699999809265137,3.549999952316284 11.800000190734863,3.1500000953674316 C5,-1.5499999523162842 -5.099999904632568,-0.8500000238418579 -11.199999809265137,4.550000190734863 C-11.899999618530273,4.849999904632568 -12.100000381469727,5.050000190734863 -12.600000381469727,5.050000190734863z"/></g><g opacity="1" transform="matrix(1,0,0,1,738.9290161132812,279.63299560546875)"><path fill="rgb(2,2,2)" fill-opacity="1" d=" M0.9649999737739563,15.652999877929688 C0.7649999856948853,15.652999877929688 0.4650000035762787,15.652999877929688 0.06499999761581421,15.45300006866455 C-1.3350000381469727,14.553000450134277 -8.135000228881836,10.253000259399414 -6.235000133514404,6.052999973297119 C-6.235000133514404,6.052999973297119 -6.235000133514404,5.853000164031982 -6.034999847412109,5.853000164031982 C-4.635000228881836,3.953000068664551 -2.734999895095825,-0.44699999690055847 -1.1349999904632568,-4.646999835968018 C0.4650000035762787,-8.847000122070312 2.1649999618530273,-12.847000122070312 3.565000057220459,-14.946999549865723 C4.065000057220459,-15.647000312805176 4.965000152587891,-15.847000122070312 5.864999771118164,-15.446999549865723 C6.565000057220459,-14.946999549865723 6.764999866485596,-14.04699993133545 6.364999771118164,-13.147000312805176 C5.164999961853027,-11.04699993133545 3.365000009536743,-7.046999931335449 1.8650000095367432,-3.3469998836517334 C-0.03500000014901161,1.152999997138977 -1.8350000381469727,5.552999973297119 -3.3350000381469727,7.6529998779296875 C-3.5350000858306885,8.553000450134277 -1.2350000143051147,11.152999877929688 1.565000057220459,12.852999687194824 C2.265000104904175,13.352999687194824 2.4649999141693115,14.253000259399414 2.065000057220459,14.95300006866455 C2.1649999618530273,15.352999687194824 1.465000033378601,15.652999877929688 0.9649999737739563,15.652999877929688z"/></g><g opacity="1" transform="matrix(1,0,0,1,813.5440063476562,296.135986328125)"><path fill="rgb(251,223,181)" fill-opacity="1" d=" M-18.049999237060547,16.25 C-17.149999618530273,16.75 -16.450000762939453,17.450000762939453 -15.449999809265137,17.850000381469727 C-9.550000190734863,20.850000381469727 -1.350000023841858,19.450000762939453 4.25,16.649999618530273 C9.850000381469727,13.649999618530273 13.350000381469727,8.449999809265137 15.449999809265137,3.25 C17.049999237060547,-0.25 18.049999237060547,-4.050000190734863 18.049999237060547,-7.75 C17.850000381469727,-11.449999809265137 15.75,-15.449999809265137 11.949999809265137,-17.850000381469727 C8.149999618530273,-20.25 1.850000023841858,-20.850000381469727 -2.1500000953674316,-18.549999237060547 C-4.75,-17.149999618530273 -6.349999904632568,-15.050000190734863 -7.75,-12.949999809265137 C-10.050000190734863,-9.949999809265137 -12.449999809265137,-6.150000095367432 -10.75,-2.6500000953674316"/></g><g opacity="1" transform="matrix(1,0,0,1,813.677978515625,293.8550109863281)"><path fill="rgb(2,2,2)" fill-opacity="0.15" d=" M-8.385000228881836,3.7309999465942383 C-8.885000228881836,8.630999565124512 -3.184999942779541,12.430999755859375 1.715000033378601,7.230999946594238 C2.9149999618530273,5.830999851226807 3.815000057220459,3.930999994277954 2.4149999618530273,2.5309998989105225 C1.5149999856948853,1.13100004196167 -1.784999966621399,0.9309999942779541 -2.7850000858306885,2.3310000896453857 C-2.984999895095825,-2.86899995803833 1.9149999618530273,-7.968999862670898 8.414999961853027,-9.168999671936035 C7.215000152587891,-10.069000244140625 5.414999961853027,-9.668999671936035 4.215000152587891,-9.369000434875488 C-2.2850000858306885,-7.269000053405762 -7.684999942779541,-1.86899995803833 -8.385000228881836,3.7309999465942383z"/></g><g opacity="1" transform="matrix(1,0,0,1,760.2440185546875,185.875)"><path fill="rgb(34,33,31)" fill-opacity="1" d=" M-43.04999923706055,31.309999465942383 C-43.04999923706055,31.309999465942383 -70.75,42.51100158691406 -78.25,20.111000061035156 C-78.25,20.111000061035156 -78.9489974975586,7.921000003814697 -63.96900177001953,8.40999984741211 C-78.01699829101562,7.952000141143799 -78.7770004272461,-7.966000080108643 -72.64099884033203,-18.320999145507812 C-66.78600311279297,-28.200000762939453 -52.83100128173828,-29.031999588012695 -44.56800079345703,-21.972000122070312 C-41.19599914550781,-42.51499938964844 -18.85300064086914,-49.709999084472656 -0.550000011920929,-48.98899841308594 C-0.550000011920929,-48.98899841308594 18.649999618530273,-47.38999938964844 26.450000762939453,-35.189998626708984 C26.450000762939453,-35.189998626708984 49.14899826049805,-46.18899917602539 62.04899978637695,-26.98900032043457 C74.9489974975586,-7.789000034332275 58.54899978637695,-2.3889999389648438 58.54899978637695,-2.3889999389648438 C58.54899978637695,-2.3889999389648438 78.9489974975586,-6.589000225067139 76.14900207519531,16.611000061035156 C73.3489990234375,39.81100082397461 42.64899826049805,33.51100158691406 42.64899826049805,33.51100158691406 C42.64899826049805,33.51100158691406 33.249000549316406,49.71099853515625 9.64900016784668,38.4109992980957 C9.64900016784668,38.4109992980957 1.6490000486373901,36.111000061035156 -0.6510000228881836,28.111000061035156 C-0.6510000228881836,28.111000061035156 -4.849999904632568,41.209999084472656 -25.25,39.810001373291016 C-25.25,39.810001373291016 -34.349998474121094,39.810001373291016 -43.04999923706055,31.309999465942383z"/></g><g opacity="1" transform="matrix(1,0,0,1,714.6439819335938,262.9859924316406)"><path fill="rgb(2,2,2)" fill-opacity="1" d=" M-0.05000000074505806,25.5 C-14.149999618530273,25.5 -25.549999237060547,14 -25.549999237060547,0 C-25.549999237060547,-14 -14.050000190734863,-25.5 -0.05000000074505806,-25.5 C13.949999809265137,-25.5 25.450000762939453,-14 25.450000762939453,0 C25.549999237060547,14 14.050000190734863,25.5 -0.05000000074505806,25.5z M-0.05000000074505806,-22.299999237060547 C-12.25,-22.299999237060547 -22.350000381469727,-12.199999809265137 -22.350000381469727,0 C-22.350000381469727,12.199999809265137 -12.25,22.299999237060547 -0.05000000074505806,22.299999237060547 C12.149999618530273,22.299999237060547 22.25,12.199999809265137 22.25,0 C22.25,-12.199999809265137 12.149999618530273,-22.299999237060547 -0.05000000074505806,-22.299999237060547z"/></g><g opacity="1" transform="matrix(1,0,0,1,775.7940063476562,266.4859924316406)"><path fill="rgb(2,2,2)" fill-opacity="1" d=" M0,25.5 C-14.100000381469727,25.5 -25.5,14 -25.5,0 C-25.5,-14 -14,-25.5 0,-25.5 C14.100000381469727,-25.5 25.5,-14 25.5,0 C25.5,14 14.100000381469727,25.5 0,25.5z M0,-22.299999237060547 C-12.199999809265137,-22.299999237060547 -22.299999237060547,-12.199999809265137 -22.299999237060547,0 C-22.299999237060547,12.199999809265137 -12.199999809265137,22.299999237060547 0,22.299999237060547 C12.199999809265137,22.299999237060547 22.299999237060547,12.199999809265137 22.299999237060547,0 C22.299999237060547,-12.199999809265137 12.199999809265137,-22.299999237060547 0,-22.299999237060547z"/></g><g opacity="1" transform="matrix(1,0,0,1,745.4940185546875,261.635986328125)"><path fill="rgb(2,2,2)" fill-opacity="1" d=" M6.900000095367432,4.550000190734863 C6.400000095367432,4.550000190734863 6,4.349999904632568 5.699999809265137,4.050000190734863 C1,-1.850000023841858 -5.800000190734863,3.549999952316284 -6,3.8499999046325684 C-6.699999809265137,4.349999904632568 -7.599999904632568,4.349999904632568 -8.300000190734863,3.6500000953674316 C-8.800000190734863,2.950000047683716 -8.800000190734863,2.049999952316284 -8.100000381469727,1.350000023841858 C-4.800000190734863,-1.25 2.700000047683716,-4.550000190734863 8.300000190734863,2.049999952316284 C8.800000190734863,2.75 8.800000190734863,3.6500000953674316 8.100000381469727,4.349999904632568 C7.599999904632568,4.349999904632568 7.300000190734863,4.550000190734863 6.900000095367432,4.550000190734863z"/></g></g><g transform="matrix(0.6714988350868225,0.016462722793221474,-0.016462722793221474,0.6714988350868225,294.4281921386719,101.11565399169922)" opacity="1" style="display: block;"><g opacity="1" transform="matrix(1,0,0,1,813.75,318.8500061035156)"><path fill="rgb(216,162,83)" fill-opacity="1" d=" M10.050000190734863,-4.449999809265137 C10.050000190734863,-4.449999809265137 9.350000381469727,-0.44999998807907104 7.25,2.549999952316284 C5.349999904632568,5.650000095367432 2.049999952316284,7.75 -2.8499999046325684,6.349999904632568 C-4.949999809265137,5.349999904632568 -6.349999904632568,4.25 -7.25,2.549999952316284 C-10.050000190734863,-1.850000023841858 -8.449999809265137,-7.75 -8.449999809265137,-7.75 C1.5499999523162842,-5.849999904632568 10.050000190734863,-4.449999809265137 10.050000190734863,-4.449999809265137z"/></g></g><g transform="matrix(0.9896228313446045,0.1436895877122879,-0.1436895877122879,0.9896228313446045,798.2235107421875,840.7536010742188)" opacity="1" style="display: block;"><g opacity="1" transform="matrix(1,0,0,1,-13.142000198364258,-561.5960083007812)"><path fill="rgb(0,0,0)" fill-opacity="1" d=" M0,-5.6539998054504395 C2.267204999923706,-5.6539998054504395 4.107999801635742,-3.1204423904418945 4.107999801635742,0 C4.107999801635742,3.1204423904418945 2.267204999923706,5.6539998054504395 0,5.6539998054504395 C-2.267204999923706,5.6539998054504395 -4.107999801635742,3.1204423904418945 -4.107999801635742,0 C-4.107999801635742,-3.1204423904418945 -2.267204999923706,-5.6539998054504395 0,-5.6539998054504395z"/><path stroke-linecap="butt" stroke-linejoin="miter" fill-opacity="0" stroke-miterlimit="4" stroke="rgb(0,0,0)" stroke-opacity="1" stroke-width="2" d=" M0,-5.6539998054504395 C2.267204999923706,-5.6539998054504395 4.107999801635742,-3.1204423904418945 4.107999801635742,0 C4.107999801635742,3.1204423904418945 2.267204999923706,5.6539998054504395 0,5.6539998054504395 C-2.267204999923706,5.6539998054504395 -4.107999801635742,3.1204423904418945 -4.107999801635742,0 C-4.107999801635742,-3.1204423904418945 -2.267204999923706,-5.6539998054504395 0,-5.6539998054504395z"/></g></g><g transform="matrix(0.9896228313446045,0.1436895877122879,-0.1436895877122879,0.9896228313446045,747.4017944335938,834.7249755859375)" opacity="1" style="display: block;"><g opacity="1" transform="matrix(1,0,0,1,-13.142000198364258,-561.5960083007812)"><path fill="rgb(0,0,0)" fill-opacity="1" d=" M0,-5.6539998054504395 C2.267204999923706,-5.6539998054504395 4.107999801635742,-3.1204423904418945 4.107999801635742,0 C4.107999801635742,3.1204423904418945 2.267204999923706,5.6539998054504395 0,5.6539998054504395 C-2.267204999923706,5.6539998054504395 -4.107999801635742,3.1204423904418945 -4.107999801635742,0 C-4.107999801635742,-3.1204423904418945 -2.267204999923706,-5.6539998054504395 0,-5.6539998054504395z"/><path stroke-linecap="butt" stroke-linejoin="miter" fill-opacity="0" stroke-miterlimit="4" stroke="rgb(0,0,0)" stroke-opacity="1" stroke-width="2" d=" M0,-5.6539998054504395 C2.267204999923706,-5.6539998054504395 4.107999801635742,-3.1204423904418945 4.107999801635742,0 C4.107999801635742,3.1204423904418945 2.267204999923706,5.6539998054504395 0,5.6539998054504395 C-2.267204999923706,5.6539998054504395 -4.107999801635742,3.1204423904418945 -4.107999801635742,0 C-4.107999801635742,-3.1204423904418945 -2.267204999923706,-5.6539998054504395 0,-5.6539998054504395z"/></g></g></g></svg>